<svg xmlns="http://www.w3.org/2000/svg" xmlns:xlink="http://www.w3.org/1999/xlink" width="180.801" height="71" viewBox="0 0 180.801 71"><defs><clipPath id="b"><rect width="180.8" height="71"/></clipPath></defs><g id="a" clip-path="url(#b)"><g transform="translate(1.077 0.949)"><ellipse cx="89.323" cy="34.55" rx="89.323" ry="34.55" fill="#d61622"/><path d="M38.018,64.513H33.286v-.382c.073-.971-.1-1.577-.516-1.817a8.548,8.548,0,0,0-3.252-.358q-3.78,0-4.215,2.439-.293,1.671.317,1.988a17.667,17.667,0,0,0,4.422.5q5.126.256,6.5,1.374t.756,4.585q-.654,3.7-2.984,5.126T26.6,79.4q-5.179,0-6.849-1.289t-1.069-4.8l.089-.508h5.028a4.471,4.471,0,0,0-.244.658q-.776,2.683,3.658,2.683,4.585,0,5.057-2.662.451-2.553-2.439-2.557-6.5,0-8.329-1.219T20.34,64.618q.61-3.463,2.707-4.691T30.5,58.7q5.048,0,6.585,1.187T38.018,64.513Z" transform="translate(-10.991 -34.84)" fill="#fff"/><path d="M86.393,71.479H91.21l-.122.7-.837,3.061q-1.626,4.191-9.4,4.187-5.691,0-7.223-2.061t-.406-8.3q1.073-6.1,3.325-8.195t7.682-2.114q5.244,0,6.833,1.528t.813,5.825h-4.8q.622-3.528-3.459-3.528-2.894,0-3.829,1.118t-1.7,5.5q-.744,4.227-.122,5.313T81.76,75.6q2.5,0,3.333-.752A6.179,6.179,0,0,0,86.393,71.479Z" transform="translate(-43.177 -34.875)" fill="#fff"/><path d="M136.856,58.76q5.853,0,7.341,1.87t.427,7.89q-1.191,6.719-3.329,8.812t-7.849,2.093q-6.195,0-7.678-1.947t-.317-8.536q1.122-6.361,3.252-8.264T136.856,58.76Zm-.715,3.825q-3.024,0-4.04,1.085c-.675.728-1.248,2.439-1.719,5.085q-.813,4.561-.224,5.691t3.707,1.142q3.024,0,4.028-1.219t1.813-5.756q.683-3.866.049-4.943C139.331,62.943,138.124,62.585,136.14,62.585Z" transform="translate(-74.153 -34.875)" fill="#fff"/><path d="M182.553,58.891h4.837l-.793,2.845.1.024a7.089,7.089,0,0,1,6.012-3.171q5.325,0,4.138,6.719l-.248,1.415h-4.565c.15-.549.244-.906.272-1.077q.573-3.231-1.927-3.231-3.593,0-4.439,4.8L183.829,79.08H179Z" transform="translate(-106.241 -34.775)" fill="#fff"/><path d="M224.859,58.956h4.922l-.719,3,.106.02Q231.5,58.7,236.273,58.7q4.414,0,5.691,2.187t.256,7.979q-1.065,6.044-3.11,8.284t-6.5,2.24q-4.748,0-5.65-3.171h-.085l-2.032,11.6H219.77Zm8.9,3.569q-2.768,0-3.833,1.248t-1.776,5.284q-.7,3.927,0,5.219t3.471,1.289q2.845,0,3.89-1.219t1.772-5.26q.732-4.142.089-5.345T233.761,62.525Z" transform="translate(-130.439 -34.84)" fill="#fff"/><path d="M298.119,52.724l-.65,3.658h-7.776L287.9,66.544q-.492,2.8,1.626,2.809,2.341,0,2.943-3.4l.142-.813h4.122l-.179,1.016c-.167.931-.333,1.728-.508,2.39q-1.219,4.622-7.7,4.626t-5.386-5.947l1.91-10.841H282.25l.65-3.658h2.618l.813-4.524h4.837l-.813,4.524Z" transform="translate(-167.522 -28.608)" fill="#fff"/><path d="M336.137,72.715h4.878l-.154.764q-1.036,5.935-9.918,5.935-6.024,0-7.52-2.032t-.329-8.682q1.045-5.894,3.341-7.926t7.943-2.032q5.41,0,6.91,1.975t.467,7.768l-.26,1.48H327.813c-.106.451-.171.748-.2.886q-.532,2.979.215,3.975c.5.658,1.663.992,3.492.992a7.238,7.238,0,0,0,3.569-.581A3.61,3.61,0,0,0,336.137,72.715Zm1.053-5.739.118-.813q.427-2.406-.28-3.126t-3.5-.719q-2.707,0-3.658.87t-1.5,3.788Z" transform="translate(-191.46 -34.864)" fill="#fff"/><path d="M390.068,71.479h4.817l-.122.7-.837,3.061q-1.626,4.191-9.4,4.187-5.691,0-7.223-2.061t-.406-8.3q1.073-6.1,3.329-8.195t7.682-2.114q5.235,0,6.829,1.528t.813,5.825h-4.8q.622-3.528-3.455-3.528-2.894,0-3.833,1.118t-1.707,5.5q-.744,4.227-.126,5.313t3.792,1.089q2.492,0,3.333-.752A6.224,6.224,0,0,0,390.068,71.479Z" transform="translate(-223.412 -34.875)" fill="#fff"/></g></g></svg>